<svg width="142" height="34" viewBox="0 0 142 34" fill="none" xmlns="http://www.w3.org/2000/svg">
<path fill-rule="evenodd" clip-rule="evenodd" d="M34.3735 20.75V3.34372H34.3719C34.3719 2.78095 33.7009 2.50036 33.3087 2.89509L29.8529 6.4128L26.9956 9.31701C26.7546 9.56273 26.3608 9.56273 26.1199 9.31701L18.7436 1.8187L17.1369 0.184287C16.8928 -0.0614291 16.499 -0.0614291 16.258 0.184287L14.4513 2.02161L11.5484 4.97655L10.1324 6.41122L0.180745 16.5284C-0.0602484 16.7741 -0.0602484 17.1736 0.180745 17.4225L9.06916 26.4553L13.5882 31.0526C13.982 31.4473 14.6514 31.1652 14.6514 30.6071V3.86686C14.6467 3.84467 14.6467 3.82089 14.6467 3.7987C14.6467 3.7765 14.6467 3.75272 14.6514 3.73053C14.6813 3.39921 14.9585 3.14081 15.2893 3.14081C15.4374 3.14081 15.5713 3.18995 15.6784 3.27239C15.7272 3.30885 15.7713 3.35482 15.8075 3.40396L18.7672 6.4128L24.3132 12.0453L31.4075 19.2614L33.3103 21.1954C33.7041 21.5901 34.3735 21.308 34.3735 20.75ZM18.241 13.2516V30.6547C18.241 31.2175 18.9009 31.4996 19.29 31.1002L22.7096 27.5872L25.5353 24.683C25.7763 24.4341 26.1654 24.4341 26.4017 24.683L33.7024 32.1766L35.2916 33.8157C35.5326 34.0614 35.9217 34.0614 36.1627 33.8157L37.9489 31.9768L40.8251 29.0219L42.2222 27.5872L52.0714 17.4653C52.3124 17.2211 52.3124 16.8217 52.0714 16.5759L43.2759 7.53992L38.8026 2.9474C38.4183 2.54791 37.7536 2.83009 37.7536 3.39286V30.1347C37.7583 30.1569 37.7583 30.1807 37.7583 30.2029C37.7583 30.2251 37.7583 30.2489 37.7536 30.2711C37.7221 30.5976 37.4496 30.856 37.1188 30.856C36.9755 30.856 36.8416 30.8116 36.7392 30.7292C36.6904 30.688 36.6463 30.6468 36.61 30.5929L33.6803 27.5888L28.1926 21.9516L21.1738 14.7402L19.29 12.8062C18.9025 12.4067 18.241 12.6889 18.241 13.2516Z" fill="#3FBD97"/>
<path fill-rule="evenodd" clip-rule="evenodd" d="M57.6152 12.075H61.5291V13.7578C62.4107 12.9633 63.2355 12.4449 63.9434 12.1348C64.6829 11.8296 65.4129 11.6777 66.1776 11.6777C67.7087 11.6777 69.036 12.2284 70.1231 13.3605C71.0364 14.3085 71.4804 15.7135 71.4804 17.5772V28.2957H67.5934V21.2077C67.5934 19.2519 67.5033 17.9713 67.3611 17.3608C67.1826 16.7229 66.8871 16.2319 66.4747 15.8944C66.0623 15.5569 65.5345 15.4051 64.9468 15.4051C64.1488 15.4051 63.4425 15.6829 62.8863 16.2319C62.327 16.7827 61.9146 17.5449 61.7045 18.5252C61.5875 19.0145 61.5291 20.1111 61.5291 21.789V28.2941H57.6152V12.075ZM60.1196 9.05181L58.5301 6.57284C59.7657 5.5974 61.0029 5.10645 62.2385 5.10645C62.7094 5.10645 63.5326 5.2631 64.6529 5.59578C65.4461 5.8138 66.0639 5.93331 66.5079 5.93331C67.3327 5.93331 68.1559 5.68783 69.0075 5.1662L70.5118 7.48691C69.3062 8.55924 68.1243 9.10995 67.0088 9.10995C66.4178 9.10995 65.6878 8.98559 64.8314 8.71267C64.1551 8.49949 63.7111 8.37514 63.5326 8.34284C63.2687 8.31054 62.978 8.28308 62.6509 8.28308C61.7961 8.28308 60.9444 8.52856 60.1196 9.05019V9.05181ZM75.2804 12.075H79.2527V19.8656C79.2527 21.3918 79.3696 22.4318 79.5482 23.0374C79.7536 23.6204 80.0759 24.0775 80.5199 24.4101C80.9908 24.7477 81.5185 24.8995 82.1996 24.8995C82.8806 24.8995 83.4051 24.7477 83.8428 24.4101C84.3169 24.1098 84.6408 23.6188 84.873 23.0051C85.0247 22.5158 85.11 21.5387 85.11 20.0142V12.0702H89.0239V18.9451C89.0239 21.7568 88.8185 23.7125 88.3745 24.7477C87.8467 26.0009 87.0804 26.9812 86.0502 27.6788C85.02 28.3539 83.7212 28.6914 82.1363 28.6914C80.4299 28.6914 79.041 28.2941 77.9839 27.498C76.9269 26.7034 76.1558 25.602 75.7497 24.1695C75.4226 23.1941 75.2757 21.4176 75.2757 18.824V12.0686L75.2804 12.0734V12.075ZM92.0323 12.075H95.4184V14.118C95.7676 13.3266 96.2732 12.7129 96.861 12.2866C97.4788 11.8941 98.1282 11.6761 98.8314 11.6761C99.3323 11.6761 99.8616 11.7956 100.421 12.1057L99.2153 15.6199C98.7413 15.3744 98.3605 15.25 98.0682 15.25C97.4773 15.25 96.9748 15.6473 96.564 16.4112C96.1516 17.1783 95.9462 18.7045 95.9462 20.9654V28.2941H92.0323V12.075ZM103.929 5.41652C104.605 5.41652 105.191 5.65715 105.694 6.17878C106.191 6.69719 106.433 7.31087 106.433 8.04245C106.433 8.77403 106.196 9.38772 105.694 9.90613C105.22 10.4245 104.637 10.6732 103.956 10.6732C103.275 10.6732 102.661 10.3955 102.159 9.87867C101.657 9.36188 101.424 8.74981 101.424 7.9827C101.424 7.28504 101.657 6.66973 102.159 6.17878C102.63 5.66038 103.216 5.41652 103.924 5.41652H103.929ZM101.958 12.075H105.872V28.2957H101.958V12.075ZM109.47 5.8138H113.381V18.761L119.181 12.0702H124.071L117.358 19.801L124.923 28.2941H120.036L113.385 20.8088V28.2941H109.472V5.81542L109.47 5.8138ZM138.087 12.075H142V28.2957H138.087V26.5564C137.32 27.3187 136.556 27.8694 135.789 28.2021C135.023 28.5396 134.168 28.6914 133.285 28.6914C131.256 28.6914 129.486 27.8678 128.017 26.2496C126.543 24.6314 125.805 22.6159 125.805 20.2015C125.805 17.7872 126.513 15.6796 127.958 14.0614C129.369 12.4755 131.107 11.681 133.168 11.681C134.108 11.681 134.964 11.8618 135.788 12.2317C136.611 12.6015 137.377 13.1474 138.085 13.8499V12.075H138.087ZM133.961 15.4035C132.755 15.4035 131.727 15.8331 130.929 16.7487C130.131 17.637 129.723 18.7642 129.723 20.1386C129.723 21.5129 130.136 22.7047 130.959 23.6253C131.784 24.5087 132.787 24.9657 133.96 24.9657C135.195 24.9657 136.23 24.5087 137.055 23.6253C137.848 22.737 138.26 21.5775 138.26 20.1386C138.26 18.6996 137.843 17.5724 137.055 16.7164C136.23 15.8282 135.197 15.4035 133.96 15.4035H133.961Z" fill="white"/>
</svg>
