<svg width="53" height="34" viewBox="0 0 53 34" fill="none" xmlns="http://www.w3.org/2000/svg">
<path fill-rule="evenodd" clip-rule="evenodd" d="M34.3735 20.75V3.34372H34.3719C34.3719 2.78095 33.7009 2.50036 33.3087 2.89509L29.8529 6.4128L26.9956 9.31701C26.7546 9.56273 26.3608 9.56273 26.1199 9.31701L18.7436 1.8187L17.1369 0.184287C16.8928 -0.0614291 16.499 -0.0614291 16.258 0.184287L14.4513 2.02161L11.5484 4.97655L10.1324 6.41122L0.180745 16.5284C-0.0602484 16.7741 -0.0602484 17.1736 0.180745 17.4225L9.06916 26.4553L13.5882 31.0526C13.982 31.4473 14.6514 31.1652 14.6514 30.6071V3.86686C14.6467 3.84467 14.6467 3.82089 14.6467 3.7987C14.6467 3.7765 14.6467 3.75272 14.6514 3.73053C14.6813 3.39921 14.9585 3.14081 15.2893 3.14081C15.4374 3.14081 15.5713 3.18995 15.6784 3.27239C15.7272 3.30885 15.7713 3.35482 15.8075 3.40396L18.7672 6.4128L24.3132 12.0453L31.4075 19.2614L33.3103 21.1954C33.7041 21.5901 34.3735 21.308 34.3735 20.75ZM18.241 13.2516V30.6547C18.241 31.2175 18.9009 31.4996 19.29 31.1002L22.7096 27.5872L25.5353 24.683C25.7763 24.4341 26.1654 24.4341 26.4017 24.683L33.7024 32.1766L35.2916 33.8157C35.5326 34.0614 35.9217 34.0614 36.1627 33.8157L37.9489 31.9768L40.8251 29.0219L42.2222 27.5872L52.0714 17.4653C52.3124 17.2211 52.3124 16.8217 52.0714 16.5759L43.2759 7.53992L38.8026 2.9474C38.4183 2.54791 37.7536 2.83009 37.7536 3.39286V30.1347C37.7583 30.1569 37.7583 30.1807 37.7583 30.2029C37.7583 30.2251 37.7583 30.2489 37.7536 30.2711C37.7221 30.5976 37.4496 30.856 37.1188 30.856C36.9755 30.856 36.8416 30.8116 36.7392 30.7292C36.6904 30.688 36.6463 30.6468 36.61 30.5929L33.6803 27.5888L28.1926 21.9516L21.1738 14.7402L19.29 12.8062C18.9025 12.4067 18.241 12.6889 18.241 13.2516Z" fill="#3FBD97"/>
</svg>
