<svg width="16" height="16" viewBox="0 0 16 16" fill="none" xmlns="http://www.w3.org/2000/svg">
<path d="M8.00586 3.91699C10.2207 3.91699 12.0488 5.74512 12.0488 7.95996C12.0488 10.21 10.2207 12.0029 8.00586 12.0029C5.75586 12.0029 3.96289 10.21 3.96289 7.95996C3.96289 5.74512 5.75586 3.91699 8.00586 3.91699ZM8.00586 10.5967C9.44727 10.5967 10.6074 9.43652 10.6074 7.95996C10.6074 6.51855 9.44727 5.3584 8.00586 5.3584C6.5293 5.3584 5.36914 6.51855 5.36914 7.95996C5.36914 9.43652 6.56445 10.5967 8.00586 10.5967ZM13.1387 3.77637C13.1387 4.30371 12.7168 4.72559 12.1895 4.72559C11.6621 4.72559 11.2402 4.30371 11.2402 3.77637C11.2402 3.24902 11.6621 2.82715 12.1895 2.82715C12.7168 2.82715 13.1387 3.24902 13.1387 3.77637ZM15.8105 4.72559C15.8809 6.02637 15.8809 9.92871 15.8105 11.2295C15.7402 12.4951 15.459 13.585 14.5449 14.5342C13.6309 15.4482 12.5059 15.7295 11.2402 15.7998C9.93945 15.8701 6.03711 15.8701 4.73633 15.7998C3.4707 15.7295 2.38086 15.4482 1.43164 14.5342C0.517578 13.585 0.236328 12.4951 0.166016 11.2295C0.0957031 9.92871 0.0957031 6.02637 0.166016 4.72559C0.236328 3.45996 0.517578 2.33496 1.43164 1.4209C2.38086 0.506836 3.4707 0.225586 4.73633 0.155273C6.03711 0.0849609 9.93945 0.0849609 11.2402 0.155273C12.5059 0.225586 13.6309 0.506836 14.5449 1.4209C15.459 2.33496 15.7402 3.45996 15.8105 4.72559ZM14.123 12.6006C14.5449 11.5811 14.4395 9.12012 14.4395 7.95996C14.4395 6.83496 14.5449 4.37402 14.123 3.31934C13.8418 2.65137 13.3145 2.08887 12.6465 1.84277C11.5918 1.4209 9.13086 1.52637 8.00586 1.52637C6.8457 1.52637 4.38477 1.4209 3.36523 1.84277C2.66211 2.12402 2.13477 2.65137 1.85352 3.31934C1.43164 4.37402 1.53711 6.83496 1.53711 7.95996C1.53711 9.12012 1.43164 11.5811 1.85352 12.6006C2.13477 13.3037 2.66211 13.8311 3.36523 14.1123C4.38477 14.5342 6.8457 14.4287 8.00586 14.4287C9.13086 14.4287 11.5918 14.5342 12.6465 14.1123C13.3145 13.8311 13.877 13.3037 14.123 12.6006Z" fill="white"/>
</svg>
